<?xml version="1.0" encoding="UTF-8" standalone="no"?>
<!DOCTYPE svg PUBLIC "-//W3C//DTD SVG 1.1//EN" "http://www.w3.org/Graphics/SVG/1.1/DTD/svg11.dtd">
<svg width="100%" height="100%" viewBox="0 0 1186 940" version="1.1" xmlns="http://www.w3.org/2000/svg" xmlns:xlink="http://www.w3.org/1999/xlink" xml:space="preserve" xmlns:serif="http://www.serif.com/" style="fill-rule:evenodd;clip-rule:evenodd;stroke-linecap:round;stroke-linejoin:round;stroke-miterlimit:1.5;">
    <g transform="matrix(1,0,0,1,-55.5913,-59.3703)">
        <g transform="matrix(0.673735,0,0,0.591754,-237.981,-285.589)">
            <path d="M1027.31,631.233L436.481,724.992L436.481,2059.37L1027.31,1965.61L1027.31,631.233Z" style="fill:rgb(209,209,209);stroke:black;stroke-width:1.58px;"/>
        </g>
        <g transform="matrix(0.673735,0,0,0.591754,548.024,-313.665)">
            <path d="M1027.31,631.233L436.481,724.992L436.481,2059.37L1027.31,1965.61L1027.31,631.233Z" style="fill:rgb(209,209,209);stroke:black;stroke-width:1.58px;"/>
        </g>
        <g transform="matrix(0.673735,0,0,0.591754,-237.981,-285.589)">
            <path d="M1027.31,631.233L615.847,737.079L615.847,2071.45L1027.31,1965.61L1027.31,631.233Z" style="fill:rgb(232,232,232);stroke:black;stroke-width:1.58px;"/>
        </g>
        <g transform="matrix(0.673735,0,0,0.591754,548.024,-313.665)">
            <path d="M1027.31,631.233L615.847,737.079L615.847,2071.45L1027.31,1965.61L1027.31,631.233Z" style="fill:rgb(232,232,232);stroke:black;stroke-width:1.58px;"/>
        </g>
        <g transform="matrix(0.673735,0,0,0.591754,-237.981,-285.589)">
            <path d="M948.917,835.61L436.481,724.992L436.481,2059.37L948.917,2169.98L948.917,835.61Z" style="fill:rgb(242,242,242);stroke:black;stroke-width:1.58px;"/>
        </g>
        <g transform="matrix(0.673735,0,0,0.591754,548.024,-313.665)">
            <path d="M71.785,883.054L436.481,724.992L436.481,2059.37L71.785,2217.43L71.785,883.054Z" style="fill:rgb(242,242,242);stroke:black;stroke-width:1.58px;"/>
        </g>
        <g transform="matrix(0.911076,0.17274,-4.97265e-18,1.09343,-1253.25,-1312.44)">
            <g transform="matrix(1,0,0,1,1553.43,1217.81)">
                <text x="0px" y="0px" style="font-family:'Times-Roman', 'Times';font-size:66.667px;">Front</text>
            </g>
            <g transform="matrix(1,0,0,1,1544.2,1284.48)">
                <text x="0px" y="0px" style="font-family:'Times-Roman', 'Times';font-size:66.667px;">Cover</text>
            </g>
        </g>
        <g transform="matrix(-0.911076,0.344313,4.97265e-18,1.09343,2201.2,-1605.38)">
            <g transform="matrix(1,0,0,1,1553.43,1217.81)">
                <text x="0px" y="0px" style="font-family:'Times-Roman', 'Times';font-size:66.667px;fill:rgb(205,205,205);">Front</text>
            </g>
            <g transform="matrix(1,0,0,1,1544.2,1284.48)">
                <text x="0px" y="0px" style="font-family:'Times-Roman', 'Times';font-size:66.667px;fill:rgb(205,205,205);">Cover</text>
            </g>
        </g>
        <g transform="matrix(1.07525,-0.237106,-5.8687e-18,1.29046,-631.405,-817.731)">
            <g transform="matrix(1,0,0,1,1544.2,1217.81)">
                <text x="0px" y="0px" style="font-family:'Times-Roman', 'Times';font-size:54.784px;">Inside</text>
            </g>
            <g transform="matrix(1,0,0,1,1544.2,1272.6)">
                <text x="0px" y="0px" style="font-family:'Times-Roman', 'Times';font-size:54.784px;">Cover</text>
            </g>
        </g>
        <g transform="matrix(1.07525,-0.403015,-5.8687e-18,1.29046,-1012.76,-473.66)">
            <g transform="matrix(1,0,0,1,1544.2,1217.81)">
                <text x="0px" y="0px" style="font-family:'Times-Roman', 'Times';font-size:54.784px;">Inside</text>
            </g>
            <g transform="matrix(1,0,0,1,1565.52,1272.6)">
                <text x="0px" y="0px" style="font-family:'Times-Roman', 'Times';font-size:54.784px;">Left</text>
            </g>
        </g>
        <g transform="matrix(-1.07525,-0.203867,5.8687e-18,1.29046,1960.89,-751.989)">
            <g transform="matrix(1,0,0,1,1544.2,1217.81)">
                <text x="0px" y="0px" style="font-family:'Times-Roman', 'Times';font-size:54.784px;fill:rgb(205,205,205);">Inside</text>
            </g>
            <g transform="matrix(1,0,0,1,1565.52,1272.6)">
                <text x="0px" y="0px" style="font-family:'Times-Roman', 'Times';font-size:54.784px;fill:rgb(205,205,205);">Left</text>
            </g>
        </g>
    </g>
</svg>
